solid ascii
  facet normal 2.588190e-001 -9.659258e-001 0.000000e+000
    outer loop
      vertex   1.806362e+001 6.672319e+000 6.517915e+001
      vertex   1.806362e+001 6.672319e+000 6.967915e+001
      vertex   1.419992e+001 5.637043e+000 6.517915e+001
    endloop
  endfacet
  facet normal 2.588190e-001 -9.659258e-001 0.000000e+000
    outer loop
      vertex   1.419992e+001 5.637043e+000 6.517915e+001
      vertex   1.806362e+001 6.672319e+000 6.967915e+001
      vertex   1.419992e+001 5.637043e+000 6.967915e+001
    endloop
  endfacet
  facet normal -0.000000e+000 -0.000000e+000 -1.000000e+000
    outer loop
      vertex   1.806362e+001 6.672319e+000 6.967915e+001
      vertex   1.922831e+001 2.325653e+000 6.967915e+001
      vertex   1.419992e+001 5.637043e+000 6.967915e+001
    endloop
  endfacet
  facet normal 0.000000e+000 -0.000000e+000 -1.000000e+000
    outer loop
      vertex   1.419992e+001 5.637043e+000 6.967915e+001
      vertex   1.922831e+001 2.325653e+000 6.967915e+001
      vertex   1.536461e+001 1.290377e+000 6.967915e+001
    endloop
  endfacet
  facet normal -2.588190e-001 9.659258e-001 0.000000e+000
    outer loop
      vertex   1.922831e+001 2.325653e+000 6.967915e+001
      vertex   1.922831e+001 2.325653e+000 6.517915e+001
      vertex   1.536461e+001 1.290377e+000 6.967915e+001
    endloop
  endfacet
  facet normal -2.588190e-001 9.659258e-001 0.000000e+000
    outer loop
      vertex   1.536461e+001 1.290377e+000 6.967915e+001
      vertex   1.922831e+001 2.325653e+000 6.517915e+001
      vertex   1.536461e+001 1.290377e+000 6.517915e+001
    endloop
  endfacet
  facet normal 0.000000e+000 0.000000e+000 1.000000e+000
    outer loop
      vertex   1.922831e+001 2.325653e+000 6.517915e+001
      vertex   1.806362e+001 6.672319e+000 6.517915e+001
      vertex   1.536461e+001 1.290377e+000 6.517915e+001
    endloop
  endfacet
  facet normal 0.000000e+000 -0.000000e+000 1.000000e+000
    outer loop
      vertex   1.536461e+001 1.290377e+000 6.517915e+001
      vertex   1.806362e+001 6.672319e+000 6.517915e+001
      vertex   1.419992e+001 5.637043e+000 6.517915e+001
    endloop
  endfacet
  facet normal 9.659258e-001 2.588190e-001 0.000000e+000
    outer loop
      vertex   1.536461e+001 1.290377e+000 6.517915e+001
      vertex   1.419992e+001 5.637043e+000 6.517915e+001
      vertex   1.536461e+001 1.290377e+000 6.967915e+001
    endloop
  endfacet
  facet normal 9.659258e-001 2.588190e-001 -0.000000e+000
    outer loop
      vertex   1.536461e+001 1.290377e+000 6.967915e+001
      vertex   1.419992e+001 5.637043e+000 6.517915e+001
      vertex   1.419992e+001 5.637043e+000 6.967915e+001
    endloop
  endfacet
  facet normal -0.000000e+000 -0.000000e+000 -1.000000e+000
    outer loop
      vertex   1.533388e+001 1.685985e+001 6.968413e+001
      vertex   1.649857e+001 1.251318e+001 6.968413e+001
      vertex   1.147018e+001 1.582457e+001 6.968413e+001
    endloop
  endfacet
  facet normal 0.000000e+000 -0.000000e+000 -1.000000e+000
    outer loop
      vertex   1.147018e+001 1.582457e+001 6.968413e+001
      vertex   1.649857e+001 1.251318e+001 6.968413e+001
      vertex   1.263487e+001 1.147791e+001 6.968413e+001
    endloop
  endfacet
  facet normal -2.588190e-001 9.659258e-001 0.000000e+000
    outer loop
      vertex   1.649857e+001 1.251318e+001 6.968413e+001
      vertex   1.649857e+001 1.251318e+001 6.518413e+001
      vertex   1.263487e+001 1.147791e+001 6.968413e+001
    endloop
  endfacet
  facet normal -2.588190e-001 9.659258e-001 0.000000e+000
    outer loop
      vertex   1.263487e+001 1.147791e+001 6.968413e+001
      vertex   1.649857e+001 1.251318e+001 6.518413e+001
      vertex   1.263487e+001 1.147791e+001 6.518413e+001
    endloop
  endfacet
  facet normal 0.000000e+000 0.000000e+000 1.000000e+000
    outer loop
      vertex   1.649857e+001 1.251318e+001 6.518413e+001
      vertex   1.533388e+001 1.685985e+001 6.518413e+001
      vertex   1.263487e+001 1.147791e+001 6.518413e+001
    endloop
  endfacet
  facet normal 0.000000e+000 -0.000000e+000 1.000000e+000
    outer loop
      vertex   1.263487e+001 1.147791e+001 6.518413e+001
      vertex   1.533388e+001 1.685985e+001 6.518413e+001
      vertex   1.147018e+001 1.582457e+001 6.518413e+001
    endloop
  endfacet
  facet normal 2.588190e-001 -9.659258e-001 0.000000e+000
    outer loop
      vertex   1.533388e+001 1.685985e+001 6.518413e+001
      vertex   1.533388e+001 1.685985e+001 6.968413e+001
      vertex   1.147018e+001 1.582457e+001 6.518413e+001
    endloop
  endfacet
  facet normal 2.588190e-001 -9.659258e-001 0.000000e+000
    outer loop
      vertex   1.147018e+001 1.582457e+001 6.518413e+001
      vertex   1.533388e+001 1.685985e+001 6.968413e+001
      vertex   1.147018e+001 1.582457e+001 6.968413e+001
    endloop
  endfacet
  facet normal 9.659258e-001 2.588190e-001 0.000000e+000
    outer loop
      vertex   1.147018e+001 1.582457e+001 6.968413e+001
      vertex   1.263487e+001 1.147791e+001 6.968413e+001
      vertex   1.147018e+001 1.582457e+001 6.518413e+001
    endloop
  endfacet
  facet normal 9.659258e-001 2.588190e-001 0.000000e+000
    outer loop
      vertex   1.147018e+001 1.582457e+001 6.518413e+001
      vertex   1.263487e+001 1.147791e+001 6.968413e+001
      vertex   1.263487e+001 1.147791e+001 6.518413e+001
    endloop
  endfacet
  facet normal -0.000000e+000 -0.000000e+000 -1.000000e+000
    outer loop
      vertex   1.534320e+001 1.682509e+001 6.208978e+001
      vertex   1.663729e+001 1.199546e+001 6.208978e+001
      vertex   1.147949e+001 1.578982e+001 6.208978e+001
    endloop
  endfacet
  facet normal 0.000000e+000 -0.000000e+000 -1.000000e+000
    outer loop
      vertex   1.147949e+001 1.578982e+001 6.208978e+001
      vertex   1.663729e+001 1.199546e+001 6.208978e+001
      vertex   1.277359e+001 1.096019e+001 6.208978e+001
    endloop
  endfacet
  facet normal -2.588190e-001 9.659258e-001 0.000000e+000
    outer loop
      vertex   1.663729e+001 1.199546e+001 5.607218e+001
      vertex   1.663729e+001 1.199546e+001 5.350361e+001
      vertex   1.277359e+001 1.096019e+001 5.607218e+001
    endloop
  endfacet
  facet normal -2.588190e-001 9.659258e-001 -8.644674e-016
    outer loop
      vertex   1.277359e+001 1.096019e+001 5.607218e+001
      vertex   1.663729e+001 1.199546e+001 5.350361e+001
      vertex   1.277359e+001 1.096019e+001 5.350361e+001
    endloop
  endfacet
  facet normal 0.000000e+000 0.000000e+000 1.000000e+000
    outer loop
      vertex   1.663729e+001 1.199546e+001 5.350361e+001
      vertex   1.534320e+001 1.682509e+001 5.350361e+001
      vertex   1.277359e+001 1.096019e+001 5.350361e+001
    endloop
  endfacet
  facet normal 0.000000e+000 -0.000000e+000 1.000000e+000
    outer loop
      vertex   1.277359e+001 1.096019e+001 5.350361e+001
      vertex   1.534320e+001 1.682509e+001 5.350361e+001
      vertex   1.147949e+001 1.578982e+001 5.350361e+001
    endloop
  endfacet
  facet normal 2.588190e-001 -9.659258e-001 0.000000e+000
    outer loop
      vertex   1.534320e+001 1.682509e+001 5.350361e+001
      vertex   1.534320e+001 1.682509e+001 6.208978e+001
      vertex   1.147949e+001 1.578982e+001 5.350361e+001
    endloop
  endfacet
  facet normal 2.588190e-001 -9.659258e-001 2.586071e-016
    outer loop
      vertex   1.147949e+001 1.578982e+001 5.350361e+001
      vertex   1.534320e+001 1.682509e+001 6.208978e+001
      vertex   1.147949e+001 1.578982e+001 6.208978e+001
    endloop
  endfacet
  facet normal 9.659258e-001 2.588190e-001 0.000000e+000
    outer loop
      vertex   1.806362e+001 6.672319e+000 6.517915e+001
      vertex   1.793139e+001 7.165835e+000 6.508978e+001
      vertex   1.806362e+001 6.672319e+000 6.967915e+001
    endloop
  endfacet
  facet normal 9.659258e-001 2.588190e-001 -0.000000e+000
    outer loop
      vertex   1.806362e+001 6.672319e+000 6.517915e+001
      vertex   1.793139e+001 7.165835e+000 6.208978e+001
      vertex   1.793139e+001 7.165835e+000 6.508978e+001
    endloop
  endfacet
  facet normal 9.659258e-001 2.588190e-001 -2.184964e-015
    outer loop
      vertex   1.806362e+001 6.672319e+000 6.517915e+001
      vertex   1.922548e+001 2.336206e+000 6.208978e+001
      vertex   1.793139e+001 7.165835e+000 6.208978e+001
    endloop
  endfacet
  facet normal 9.659258e-001 2.588190e-001 -7.243532e-016
    outer loop
      vertex   1.806362e+001 6.672319e+000 6.517915e+001
      vertex   1.922831e+001 2.325653e+000 6.517915e+001
      vertex   1.922548e+001 2.336206e+000 6.208978e+001
    endloop
  endfacet
  facet normal 9.659257e-001 2.588194e-001 1.175960e-009
    outer loop
      vertex   1.922548e+001 2.336206e+000 6.208978e+001
      vertex   1.922831e+001 2.325653e+000 6.517915e+001
      vertex   1.996466e+001 -4.224224e-001 7.168400e+001
    endloop
  endfacet
  facet normal 9.659257e-001 2.588194e-001 3.307798e-016
    outer loop
      vertex   1.996466e+001 -4.224224e-001 5.100000e+001
      vertex   1.922548e+001 2.336206e+000 6.208978e+001
      vertex   1.996466e+001 -4.224224e-001 7.168400e+001
    endloop
  endfacet
  facet normal 9.659257e-001 2.588194e-001 -0.000000e+000
    outer loop
      vertex   1.996466e+001 -4.224224e-001 5.100000e+001
      vertex   1.922548e+001 2.336206e+000 5.350361e+001
      vertex   1.922548e+001 2.336206e+000 6.208978e+001
    endloop
  endfacet
  facet normal 9.659258e-001 2.588190e-001 3.748252e-007
    outer loop
      vertex   1.996466e+001 -4.224224e-001 5.100000e+001
      vertex   1.793139e+001 7.165835e+000 5.350361e+001
      vertex   1.922548e+001 2.336206e+000 5.350361e+001
    endloop
  endfacet
  facet normal 9.659258e-001 2.588190e-001 3.748253e-007
    outer loop
      vertex   1.996466e+001 -4.224224e-001 5.100000e+001
      vertex   1.461124e+001 1.955679e+001 5.100000e+001
      vertex   1.793139e+001 7.165835e+000 5.350361e+001
    endloop
  endfacet
  facet normal 9.659258e-001 2.588190e-001 3.748252e-007
    outer loop
      vertex   1.793139e+001 7.165835e+000 5.350361e+001
      vertex   1.461124e+001 1.955679e+001 5.100000e+001
      vertex   1.663729e+001 1.199546e+001 5.350361e+001
    endloop
  endfacet
  facet normal 9.659258e-001 2.588190e-001 -0.000000e+000
    outer loop
      vertex   1.793139e+001 7.165835e+000 5.607218e+001
      vertex   1.663729e+001 1.199546e+001 5.350361e+001
      vertex   1.663729e+001 1.199546e+001 5.607218e+001
    endloop
  endfacet
  facet normal 9.659258e-001 2.588190e-001 0.000000e+000
    outer loop
      vertex   1.793139e+001 7.165835e+000 5.607218e+001
      vertex   1.793139e+001 7.165835e+000 5.350361e+001
      vertex   1.663729e+001 1.199546e+001 5.350361e+001
    endloop
  endfacet
  facet normal 9.659257e-001 2.588194e-001 -0.000000e+000
    outer loop
      vertex   1.922831e+001 2.325653e+000 6.517915e+001
      vertex   1.922831e+001 2.325653e+000 6.967915e+001
      vertex   1.996466e+001 -4.224224e-001 7.168400e+001
    endloop
  endfacet
  facet normal 9.659258e-001 2.588190e-001 -4.680727e-007
    outer loop
      vertex   1.996466e+001 -4.224224e-001 7.168400e+001
      vertex   1.922831e+001 2.325653e+000 6.967915e+001
      vertex   1.806362e+001 6.672319e+000 6.967915e+001
    endloop
  endfacet
  facet normal 9.659258e-001 2.588190e-001 8.952474e-016
    outer loop
      vertex   1.649857e+001 1.251318e+001 6.968413e+001
      vertex   1.806362e+001 6.672319e+000 6.967915e+001
      vertex   1.663729e+001 1.199546e+001 6.508978e+001
    endloop
  endfacet
  facet normal 9.659258e-001 2.588190e-001 0.000000e+000
    outer loop
      vertex   1.649857e+001 1.251318e+001 6.518413e+001
      vertex   1.663729e+001 1.199546e+001 6.508978e+001
      vertex   1.663729e+001 1.199546e+001 6.208978e+001
    endloop
  endfacet
  facet normal 9.659258e-001 2.588190e-001 1.248593e-015
    outer loop
      vertex   1.534320e+001 1.682509e+001 6.208978e+001
      vertex   1.649857e+001 1.251318e+001 6.518413e+001
      vertex   1.663729e+001 1.199546e+001 6.208978e+001
    endloop
  endfacet
  facet normal 9.659258e-001 2.588190e-001 -1.068400e-015
    outer loop
      vertex   1.534320e+001 1.682509e+001 6.208978e+001
      vertex   1.533388e+001 1.685985e+001 6.518413e+001
      vertex   1.649857e+001 1.251318e+001 6.518413e+001
    endloop
  endfacet
  facet normal 9.659259e-001 2.588187e-001 4.017112e-009
    outer loop
      vertex   1.534320e+001 1.682509e+001 6.208978e+001
      vertex   1.461124e+001 1.955679e+001 7.168400e+001
      vertex   1.533388e+001 1.685985e+001 6.518413e+001
    endloop
  endfacet
  facet normal 9.659259e-001 2.588187e-001 6.370475e-016
    outer loop
      vertex   1.534320e+001 1.682509e+001 6.208978e+001
      vertex   1.461124e+001 1.955679e+001 5.100000e+001
      vertex   1.461124e+001 1.955679e+001 7.168400e+001
    endloop
  endfacet
  facet normal 9.659259e-001 2.588187e-001 0.000000e+000
    outer loop
      vertex   1.534320e+001 1.682509e+001 6.208978e+001
      vertex   1.534320e+001 1.682509e+001 5.350361e+001
      vertex   1.461124e+001 1.955679e+001 5.100000e+001
    endloop
  endfacet
  facet normal 9.659258e-001 2.588190e-001 3.748253e-007
    outer loop
      vertex   1.461124e+001 1.955679e+001 5.100000e+001
      vertex   1.534320e+001 1.682509e+001 5.350361e+001
      vertex   1.663729e+001 1.199546e+001 5.350361e+001
    endloop
  endfacet
  facet normal 9.659258e-001 2.588190e-001 -4.692375e-007
    outer loop
      vertex   1.533388e+001 1.685985e+001 6.968413e+001
      vertex   1.461124e+001 1.955679e+001 7.168400e+001
      vertex   1.649857e+001 1.251318e+001 6.968413e+001
    endloop
  endfacet
  facet normal 9.659259e-001 2.588187e-001 0.000000e+000
    outer loop
      vertex   1.533388e+001 1.685985e+001 6.968413e+001
      vertex   1.533388e+001 1.685985e+001 6.518413e+001
      vertex   1.461124e+001 1.955679e+001 7.168400e+001
    endloop
  endfacet
  facet normal 9.659258e-001 2.588190e-001 -0.000000e+000
    outer loop
      vertex   1.649857e+001 1.251318e+001 6.518413e+001
      vertex   1.649857e+001 1.251318e+001 6.968413e+001
      vertex   1.663729e+001 1.199546e+001 6.508978e+001
    endloop
  endfacet
  facet normal 9.659258e-001 2.588190e-001 -4.692375e-007
    outer loop
      vertex   1.461124e+001 1.955679e+001 7.168400e+001
      vertex   1.996466e+001 -4.224224e-001 7.168400e+001
      vertex   1.649857e+001 1.251318e+001 6.968413e+001
    endloop
  endfacet
  facet normal 9.659258e-001 2.588190e-001 -4.666657e-007
    outer loop
      vertex   1.649857e+001 1.251318e+001 6.968413e+001
      vertex   1.996466e+001 -4.224224e-001 7.168400e+001
      vertex   1.806362e+001 6.672319e+000 6.967915e+001
    endloop
  endfacet
  facet normal 9.659258e-001 2.588190e-001 -1.664354e-015
    outer loop
      vertex   1.793139e+001 7.165835e+000 6.508978e+001
      vertex   1.663729e+001 1.199546e+001 6.508978e+001
      vertex   1.806362e+001 6.672319e+000 6.967915e+001
    endloop
  endfacet
  facet normal -0.000000e+000 -0.000000e+000 -1.000000e+000
    outer loop
      vertex   1.663729e+001 1.199546e+001 6.508978e+001
      vertex   1.793139e+001 7.165835e+000 6.508978e+001
      vertex   1.277359e+001 1.096019e+001 6.508978e+001
    endloop
  endfacet
  facet normal 0.000000e+000 -0.000000e+000 -1.000000e+000
    outer loop
      vertex   1.277359e+001 1.096019e+001 6.508978e+001
      vertex   1.793139e+001 7.165835e+000 6.508978e+001
      vertex   1.406768e+001 6.130559e+000 6.508978e+001
    endloop
  endfacet
  facet normal -2.588190e-001 9.659258e-001 0.000000e+000
    outer loop
      vertex   1.406768e+001 6.130559e+000 6.208978e+001
      vertex   1.406768e+001 6.130559e+000 6.508978e+001
      vertex   1.793139e+001 7.165835e+000 6.208978e+001
    endloop
  endfacet
  facet normal -2.588190e-001 9.659258e-001 0.000000e+000
    outer loop
      vertex   1.793139e+001 7.165835e+000 6.208978e+001
      vertex   1.406768e+001 6.130559e+000 6.508978e+001
      vertex   1.793139e+001 7.165835e+000 6.508978e+001
    endloop
  endfacet
  facet normal 0.000000e+000 0.000000e+000 1.000000e+000
    outer loop
      vertex   1.793139e+001 7.165835e+000 5.607218e+001
      vertex   1.663729e+001 1.199546e+001 5.607218e+001
      vertex   1.406768e+001 6.130559e+000 5.607218e+001
    endloop
  endfacet
  facet normal 0.000000e+000 -0.000000e+000 1.000000e+000
    outer loop
      vertex   1.406768e+001 6.130559e+000 5.607218e+001
      vertex   1.663729e+001 1.199546e+001 5.607218e+001
      vertex   1.277359e+001 1.096019e+001 5.607218e+001
    endloop
  endfacet
  facet normal 2.588190e-001 -9.659258e-001 0.000000e+000
    outer loop
      vertex   1.663729e+001 1.199546e+001 6.208978e+001
      vertex   1.663729e+001 1.199546e+001 6.508978e+001
      vertex   1.277359e+001 1.096019e+001 6.208978e+001
    endloop
  endfacet
  facet normal 2.588190e-001 -9.659258e-001 0.000000e+000
    outer loop
      vertex   1.277359e+001 1.096019e+001 6.208978e+001
      vertex   1.663729e+001 1.199546e+001 6.508978e+001
      vertex   1.277359e+001 1.096019e+001 6.508978e+001
    endloop
  endfacet
  facet normal -0.000000e+000 -0.000000e+000 -1.000000e+000
    outer loop
      vertex   1.793139e+001 7.165835e+000 6.208978e+001
      vertex   1.922548e+001 2.336206e+000 6.208978e+001
      vertex   1.406768e+001 6.130559e+000 6.208978e+001
    endloop
  endfacet
  facet normal 0.000000e+000 -0.000000e+000 -1.000000e+000
    outer loop
      vertex   1.406768e+001 6.130559e+000 6.208978e+001
      vertex   1.922548e+001 2.336206e+000 6.208978e+001
      vertex   1.536178e+001 1.300930e+000 6.208978e+001
    endloop
  endfacet
  facet normal -2.588190e-001 9.659258e-001 0.000000e+000
    outer loop
      vertex   1.922548e+001 2.336206e+000 6.208978e+001
      vertex   1.922548e+001 2.336206e+000 5.350361e+001
      vertex   1.536178e+001 1.300930e+000 6.208978e+001
    endloop
  endfacet
  facet normal -2.588190e-001 9.659258e-001 -2.586071e-016
    outer loop
      vertex   1.536178e+001 1.300930e+000 6.208978e+001
      vertex   1.922548e+001 2.336206e+000 5.350361e+001
      vertex   1.536178e+001 1.300930e+000 5.350361e+001
    endloop
  endfacet
  facet normal 0.000000e+000 0.000000e+000 1.000000e+000
    outer loop
      vertex   1.922548e+001 2.336206e+000 5.350361e+001
      vertex   1.793139e+001 7.165835e+000 5.350361e+001
      vertex   1.536178e+001 1.300930e+000 5.350361e+001
    endloop
  endfacet
  facet normal 0.000000e+000 -0.000000e+000 1.000000e+000
    outer loop
      vertex   1.536178e+001 1.300930e+000 5.350361e+001
      vertex   1.793139e+001 7.165835e+000 5.350361e+001
      vertex   1.406768e+001 6.130559e+000 5.350361e+001
    endloop
  endfacet
  facet normal 2.588190e-001 -9.659258e-001 8.949625e-016
    outer loop
      vertex   1.406768e+001 6.130559e+000 5.607218e+001
      vertex   1.406768e+001 6.130559e+000 5.350361e+001
      vertex   1.793139e+001 7.165835e+000 5.607218e+001
    endloop
  endfacet
  facet normal 2.588190e-001 -9.659258e-001 0.000000e+000
    outer loop
      vertex   1.793139e+001 7.165835e+000 5.607218e+001
      vertex   1.406768e+001 6.130559e+000 5.350361e+001
      vertex   1.793139e+001 7.165835e+000 5.350361e+001
    endloop
  endfacet
  facet normal 9.659258e-001 2.588190e-001 -0.000000e+000
    outer loop
      vertex   1.536178e+001 1.300930e+000 6.208978e+001
      vertex   1.406768e+001 6.130559e+000 5.607218e+001
      vertex   1.406768e+001 6.130559e+000 6.208978e+001
    endloop
  endfacet
  facet normal 9.659258e-001 2.588190e-001 9.991813e-016
    outer loop
      vertex   1.536178e+001 1.300930e+000 6.208978e+001
      vertex   1.536178e+001 1.300930e+000 5.350361e+001
      vertex   1.406768e+001 6.130559e+000 5.607218e+001
    endloop
  endfacet
  facet normal 9.659258e-001 2.588190e-001 3.319555e-015
    outer loop
      vertex   1.406768e+001 6.130559e+000 5.607218e+001
      vertex   1.536178e+001 1.300930e+000 5.350361e+001
      vertex   1.406768e+001 6.130559e+000 5.350361e+001
    endloop
  endfacet
  facet normal 9.659258e-001 2.588190e-001 0.000000e+000
    outer loop
      vertex   1.406768e+001 6.130559e+000 5.607218e+001
      vertex   1.277359e+001 1.096019e+001 5.607218e+001
      vertex   1.406768e+001 6.130559e+000 6.208978e+001
    endloop
  endfacet
  facet normal 9.659258e-001 2.588190e-001 -0.000000e+000
    outer loop
      vertex   1.406768e+001 6.130559e+000 6.208978e+001
      vertex   1.277359e+001 1.096019e+001 5.607218e+001
      vertex   1.277359e+001 1.096019e+001 6.208978e+001
    endloop
  endfacet
  facet normal 9.659258e-001 2.588190e-001 -0.000000e+000
    outer loop
      vertex   1.406768e+001 6.130559e+000 6.508978e+001
      vertex   1.277359e+001 1.096019e+001 6.208978e+001
      vertex   1.277359e+001 1.096019e+001 6.508978e+001
    endloop
  endfacet
  facet normal 9.659258e-001 2.588190e-001 0.000000e+000
    outer loop
      vertex   1.406768e+001 6.130559e+000 6.508978e+001
      vertex   1.406768e+001 6.130559e+000 6.208978e+001
      vertex   1.277359e+001 1.096019e+001 6.208978e+001
    endloop
  endfacet
  facet normal 9.659258e-001 2.588190e-001 3.388712e-015
    outer loop
      vertex   1.277359e+001 1.096019e+001 5.350361e+001
      vertex   1.147949e+001 1.578982e+001 5.350361e+001
      vertex   1.277359e+001 1.096019e+001 5.607218e+001
    endloop
  endfacet
  facet normal 9.659258e-001 2.588190e-001 9.991813e-016
    outer loop
      vertex   1.277359e+001 1.096019e+001 5.607218e+001
      vertex   1.147949e+001 1.578982e+001 5.350361e+001
      vertex   1.147949e+001 1.578982e+001 6.208978e+001
    endloop
  endfacet
  facet normal 9.659258e-001 2.588190e-001 0.000000e+000
    outer loop
      vertex   1.277359e+001 1.096019e+001 6.208978e+001
      vertex   1.277359e+001 1.096019e+001 5.607218e+001
      vertex   1.147949e+001 1.578982e+001 6.208978e+001
    endloop
  endfacet
  facet normal 2.588190e-001 -9.659258e-001 0.000000e+000
    outer loop
      vertex   -1.455368e-002 -5.775836e+000 7.168400e+001
      vertex   -1.455368e-002 -5.775836e+000 5.100000e+001
      vertex   1.996466e+001 -4.224224e-001 7.168400e+001
    endloop
  endfacet
  facet normal 2.588190e-001 -9.659258e-001 9.964887e-017
    outer loop
      vertex   1.996466e+001 -4.224224e-001 7.168400e+001
      vertex   -1.455368e-002 -5.775836e+000 5.100000e+001
      vertex   1.996466e+001 -4.224224e-001 5.100000e+001
    endloop
  endfacet
  facet normal -0.000000e+000 0.000000e+000 1.000000e+000
    outer loop
      vertex   -5.367967e+000 1.420337e+001 7.168400e+001
      vertex   -1.455368e-002 -5.775836e+000 7.168400e+001
      vertex   1.461124e+001 1.955679e+001 7.168400e+001
    endloop
  endfacet
  facet normal -0.000000e+000 0.000000e+000 1.000000e+000
    outer loop
      vertex   1.461124e+001 1.955679e+001 7.168400e+001
      vertex   -1.455368e-002 -5.775836e+000 7.168400e+001
      vertex   1.996466e+001 -4.224224e-001 7.168400e+001
    endloop
  endfacet
  facet normal -2.588190e-001 9.659258e-001 0.000000e+000
    outer loop
      vertex   -5.367967e+000 1.420337e+001 5.100000e+001
      vertex   -5.367967e+000 1.420337e+001 7.168400e+001
      vertex   1.461124e+001 1.955679e+001 5.100000e+001
    endloop
  endfacet
  facet normal -2.588190e-001 9.659258e-001 7.307584e-016
    outer loop
      vertex   1.461124e+001 1.955679e+001 5.100000e+001
      vertex   -5.367967e+000 1.420337e+001 7.168400e+001
      vertex   1.461124e+001 1.955679e+001 7.168400e+001
    endloop
  endfacet
  facet normal -3.546598e-016 7.385071e-016 -1.000000e+000
    outer loop
      vertex   -4.361061e+000 1.044555e+001 5.100000e+001
      vertex   1.461124e+001 1.955679e+001 5.100000e+001
      vertex   1.567343e+001 1.044555e+001 5.100000e+001
    endloop
  endfacet
  facet normal 0.000000e+000 0.000000e+000 -1.000000e+000
    outer loop
      vertex   -4.361061e+000 1.044555e+001 5.100000e+001
      vertex   -5.367967e+000 1.420337e+001 5.100000e+001
      vertex   1.461124e+001 1.955679e+001 5.100000e+001
    endloop
  endfacet
  facet normal 5.151985e-015 1.380470e-015 -1.000000e+000
    outer loop
      vertex   1.461124e+001 1.955679e+001 5.100000e+001
      vertex   1.996466e+001 -4.224224e-001 5.100000e+001
      vertex   1.567343e+001 1.044555e+001 5.100000e+001
    endloop
  endfacet
  facet normal 1.655803e-015 0.000000e+000 -1.000000e+000
    outer loop
      vertex   1.567343e+001 1.044555e+001 5.100000e+001
      vertex   1.996466e+001 -4.224224e-001 5.100000e+001
      vertex   1.567343e+001 -8.234137e-001 5.100000e+001
    endloop
  endfacet
  facet normal 2.542458e-015 -9.488583e-015 -1.000000e+000
    outer loop
      vertex   1.567343e+001 -8.234137e-001 5.100000e+001
      vertex   1.996466e+001 -4.224224e-001 5.100000e+001
      vertex   -1.455368e-002 -5.775836e+000 5.100000e+001
    endloop
  endfacet
  facet normal -4.175983e-016 -1.118951e-016 -1.000000e+000
    outer loop
      vertex   -1.341551e+000 -8.234137e-001 5.100000e+001
      vertex   1.567343e+001 -8.234137e-001 5.100000e+001
      vertex   -1.455368e-002 -5.775836e+000 5.100000e+001
    endloop
  endfacet
  facet normal -9.659258e-001 -2.588190e-001 0.000000e+000
    outer loop
      vertex   -5.367967e+000 1.420337e+001 5.100000e+001
      vertex   -4.361061e+000 1.044555e+001 5.100000e+001
      vertex   -5.367967e+000 1.420337e+001 7.168400e+001
    endloop
  endfacet
  facet normal -9.659258e-001 -2.588190e-001 1.472263e-017
    outer loop
      vertex   -5.367967e+000 1.420337e+001 7.168400e+001
      vertex   -4.361061e+000 1.044555e+001 5.100000e+001
      vertex   -1.341551e+000 -8.234137e-001 5.100000e+001
    endloop
  endfacet
  facet normal -9.659258e-001 -2.588190e-001 0.000000e+000
    outer loop
      vertex   -1.455368e-002 -5.775836e+000 7.168400e+001
      vertex   -1.341551e+000 -8.234137e-001 5.100000e+001
      vertex   -1.455368e-002 -5.775836e+000 5.100000e+001
    endloop
  endfacet
  facet normal -9.659258e-001 -2.588190e-001 -3.321629e-017
    outer loop
      vertex   -1.455368e-002 -5.775836e+000 7.168400e+001
      vertex   -5.367967e+000 1.420337e+001 7.168400e+001
      vertex   -1.341551e+000 -8.234137e-001 5.100000e+001
    endloop
  endfacet
  facet normal -1.000000e+000 -0.000000e+000 -9.349247e-016
    outer loop
      vertex   -5.010541e+000 1.044555e+001 1.300000e+001
      vertex   -5.010541e+000 9.445550e+000 1.300000e+001
      vertex   -5.010541e+000 1.044555e+001 5.100000e+001
    endloop
  endfacet
  facet normal -1.000000e+000 0.000000e+000 -9.349247e-016
    outer loop
      vertex   -5.010541e+000 1.044555e+001 5.100000e+001
      vertex   -5.010541e+000 9.445550e+000 1.300000e+001
      vertex   -5.010541e+000 -8.234137e-001 5.100000e+001
    endloop
  endfacet
  facet normal -1.000000e+000 1.791743e-030 -9.349247e-016
    outer loop
      vertex   -5.010541e+000 -8.234137e-001 5.100000e+001
      vertex   -5.010541e+000 9.445550e+000 1.300000e+001
      vertex   -5.010541e+000 1.765863e-001 1.300000e+001
    endloop
  endfacet
  facet normal -1.000000e+000 -2.125773e-029 -9.349247e-016
    outer loop
      vertex   -5.010541e+000 -8.234137e-001 1.300000e+001
      vertex   -5.010541e+000 -8.234137e-001 5.100000e+001
      vertex   -5.010541e+000 1.765863e-001 1.300000e+001
    endloop
  endfacet
  facet normal -1.000000e+000 0.000000e+000 0.000000e+000
    outer loop
      vertex   -5.010541e+000 9.445550e+000 1.100000e+001
      vertex   -5.010541e+000 1.765863e-001 1.100000e+001
      vertex   -5.010541e+000 9.445550e+000 1.300000e+001
    endloop
  endfacet
  facet normal -1.000000e+000 -0.000000e+000 0.000000e+000
    outer loop
      vertex   -5.010541e+000 9.445550e+000 1.300000e+001
      vertex   -5.010541e+000 1.765863e-001 1.100000e+001
      vertex   -5.010541e+000 1.765863e-001 1.300000e+001
    endloop
  endfacet
  facet normal 0.000000e+000 -0.000000e+000 -1.000000e+000
    outer loop
      vertex   -5.010541e+000 9.445550e+000 1.100000e+001
      vertex   1.567343e+001 9.445550e+000 1.100000e+001
      vertex   -5.010541e+000 1.765863e-001 1.100000e+001
    endloop
  endfacet
  facet normal 0.000000e+000 0.000000e+000 -1.000000e+000
    outer loop
      vertex   -5.010541e+000 1.765863e-001 1.100000e+001
      vertex   1.567343e+001 9.445550e+000 1.100000e+001
      vertex   1.567343e+001 1.765863e-001 1.100000e+001
    endloop
  endfacet
  facet normal -0.000000e+000 0.000000e+000 1.000000e+000
    outer loop
      vertex   1.567343e+001 1.765863e-001 1.300000e+001
      vertex   1.567343e+001 -8.234137e-001 1.300000e+001
      vertex   1.573968e+001 1.765863e-001 1.300000e+001
    endloop
  endfacet
  facet normal 0.000000e+000 0.000000e+000 1.000000e+000
    outer loop
      vertex   1.573968e+001 1.765863e-001 1.300000e+001
      vertex   1.567343e+001 -8.234137e-001 1.300000e+001
      vertex   1.573968e+001 -9.823414e+000 1.300000e+001
    endloop
  endfacet
  facet normal 0.000000e+000 0.000000e+000 1.000000e+000
    outer loop
      vertex   1.573968e+001 -9.823414e+000 1.300000e+001
      vertex   1.567343e+001 -8.234137e-001 1.300000e+001
      vertex   -5.010541e+000 -8.234137e-001 1.300000e+001
    endloop
  endfacet
  facet normal -2.681321e-013 0.000000e+000 1.000000e+000
    outer loop
      vertex   -5.076790e+000 -9.823414e+000 1.300000e+001
      vertex   -5.010541e+000 -8.234137e-001 1.300000e+001
      vertex   -5.076790e+000 1.765863e-001 1.300000e+001
    endloop
  endfacet
  facet normal -8.533421e-016 -1.967448e-015 1.000000e+000
    outer loop
      vertex   -5.076790e+000 -9.823414e+000 1.300000e+001
      vertex   1.573968e+001 -9.823414e+000 1.300000e+001
      vertex   -5.010541e+000 -8.234137e-001 1.300000e+001
    endloop
  endfacet
  facet normal 0.000000e+000 1.776357e-014 1.000000e+000
    outer loop
      vertex   -5.010541e+000 -8.234137e-001 1.300000e+001
      vertex   -5.010541e+000 1.765863e-001 1.300000e+001
      vertex   -5.076790e+000 1.765863e-001 1.300000e+001
    endloop
  endfacet
  facet normal -1.000000e+000 -0.000000e+000 -1.480297e-015
    outer loop
      vertex   -5.076790e+000 1.765863e-001 1.000000e+000
      vertex   -5.076790e+000 -9.823414e+000 1.000000e+000
      vertex   -5.076790e+000 1.765863e-001 1.300000e+001
    endloop
  endfacet
  facet normal -1.000000e+000 0.000000e+000 -1.480297e-015
    outer loop
      vertex   -5.076790e+000 1.765863e-001 1.300000e+001
      vertex   -5.076790e+000 -9.823414e+000 1.000000e+000
      vertex   -5.076790e+000 -9.823414e+000 1.300000e+001
    endloop
  endfacet
  facet normal -0.000000e+000 1.000000e+000 0.000000e+000
    outer loop
      vertex   1.567343e+001 1.765863e-001 1.300000e+001
      vertex   1.573968e+001 1.765863e-001 1.300000e+001
      vertex   1.567343e+001 1.765863e-001 1.100000e+001
    endloop
  endfacet
  facet normal -0.000000e+000 1.000000e+000 0.000000e+000
    outer loop
      vertex   1.567343e+001 1.765863e-001 1.100000e+001
      vertex   1.573968e+001 1.765863e-001 1.300000e+001
      vertex   1.573968e+001 1.765863e-001 1.000000e+000
    endloop
  endfacet
  facet normal -0.000000e+000 1.000000e+000 0.000000e+000
    outer loop
      vertex   -5.076790e+000 1.765863e-001 1.000000e+000
      vertex   1.567343e+001 1.765863e-001 1.100000e+001
      vertex   1.573968e+001 1.765863e-001 1.000000e+000
    endloop
  endfacet
  facet normal 0.000000e+000 1.000000e+000 0.000000e+000
    outer loop
      vertex   -5.076790e+000 1.765863e-001 1.000000e+000
      vertex   -5.010541e+000 1.765863e-001 1.100000e+001
      vertex   1.567343e+001 1.765863e-001 1.100000e+001
    endloop
  endfacet
  facet normal -0.000000e+000 1.000000e+000 -0.000000e+000
    outer loop
      vertex   -5.076790e+000 1.765863e-001 1.000000e+000
      vertex   -5.076790e+000 1.765863e-001 1.300000e+001
      vertex   -5.010541e+000 1.765863e-001 1.100000e+001
    endloop
  endfacet
  facet normal 0.000000e+000 1.000000e+000 -0.000000e+000
    outer loop
      vertex   -5.010541e+000 1.765863e-001 1.100000e+001
      vertex   -5.076790e+000 1.765863e-001 1.300000e+001
      vertex   -5.010541e+000 1.765863e-001 1.300000e+001
    endloop
  endfacet
  facet normal 1.000000e+000 0.000000e+000 -0.000000e+000
    outer loop
      vertex   1.573968e+001 -9.823414e+000 1.000000e+000
      vertex   1.573968e+001 1.765863e-001 1.000000e+000
      vertex   1.573968e+001 -9.823414e+000 1.300000e+001
    endloop
  endfacet
  facet normal 1.000000e+000 -0.000000e+000 0.000000e+000
    outer loop
      vertex   1.573968e+001 -9.823414e+000 1.300000e+001
      vertex   1.573968e+001 1.765863e-001 1.000000e+000
      vertex   1.573968e+001 1.765863e-001 1.300000e+001
    endloop
  endfacet
  facet normal 0.000000e+000 -1.000000e+000 0.000000e+000
    outer loop
      vertex   -5.076790e+000 -9.823414e+000 1.000000e+000
      vertex   1.573968e+001 -9.823414e+000 1.000000e+000
      vertex   -5.076790e+000 -9.823414e+000 1.300000e+001
    endloop
  endfacet
  facet normal 0.000000e+000 -1.000000e+000 0.000000e+000
    outer loop
      vertex   -5.076790e+000 -9.823414e+000 1.300000e+001
      vertex   1.573968e+001 -9.823414e+000 1.000000e+000
      vertex   1.573968e+001 -9.823414e+000 1.300000e+001
    endloop
  endfacet
  facet normal 0.000000e+000 0.000000e+000 -1.000000e+000
    outer loop
      vertex   1.573968e+001 -9.823414e+000 1.000000e+000
      vertex   -5.076790e+000 -9.823414e+000 1.000000e+000
      vertex   1.573968e+001 1.765863e-001 1.000000e+000
    endloop
  endfacet
  facet normal -0.000000e+000 0.000000e+000 -1.000000e+000
    outer loop
      vertex   1.573968e+001 1.765863e-001 1.000000e+000
      vertex   -5.076790e+000 -9.823414e+000 1.000000e+000
      vertex   -5.076790e+000 1.765863e-001 1.000000e+000
    endloop
  endfacet
  facet normal 0.000000e+000 1.000000e+000 0.000000e+000
    outer loop
      vertex   1.567343e+001 1.044555e+001 5.100000e+001
      vertex   1.567343e+001 1.044555e+001 1.300000e+001
      vertex   -4.361061e+000 1.044555e+001 5.100000e+001
    endloop
  endfacet
  facet normal 0.000000e+000 1.000000e+000 0.000000e+000
    outer loop
      vertex   -4.361061e+000 1.044555e+001 5.100000e+001
      vertex   1.567343e+001 1.044555e+001 1.300000e+001
      vertex   -5.010541e+000 1.044555e+001 1.300000e+001
    endloop
  endfacet
  facet normal -0.000000e+000 1.000000e+000 0.000000e+000
    outer loop
      vertex   -5.010541e+000 1.044555e+001 5.100000e+001
      vertex   -4.361061e+000 1.044555e+001 5.100000e+001
      vertex   -5.010541e+000 1.044555e+001 1.300000e+001
    endloop
  endfacet
  facet normal 0.000000e+000 -1.000000e+000 0.000000e+000
    outer loop
      vertex   -5.010541e+000 -8.234137e-001 5.100000e+001
      vertex   -5.010541e+000 -8.234137e-001 1.300000e+001
      vertex   -1.341551e+000 -8.234137e-001 5.100000e+001
    endloop
  endfacet
  facet normal 0.000000e+000 -1.000000e+000 -0.000000e+000
    outer loop
      vertex   -1.341551e+000 -8.234137e-001 5.100000e+001
      vertex   -5.010541e+000 -8.234137e-001 1.300000e+001
      vertex   1.567343e+001 -8.234137e-001 1.300000e+001
    endloop
  endfacet
  facet normal -0.000000e+000 -1.000000e+000 -0.000000e+000
    outer loop
      vertex   1.567343e+001 -8.234137e-001 5.100000e+001
      vertex   -1.341551e+000 -8.234137e-001 5.100000e+001
      vertex   1.567343e+001 -8.234137e-001 1.300000e+001
    endloop
  endfacet
  facet normal 1.000000e+000 0.000000e+000 4.674623e-016
    outer loop
      vertex   1.567343e+001 1.044555e+001 1.300000e+001
      vertex   1.567343e+001 1.044555e+001 5.100000e+001
      vertex   1.567343e+001 9.445550e+000 1.300000e+001
    endloop
  endfacet
  facet normal 1.000000e+000 0.000000e+000 4.674623e-016
    outer loop
      vertex   1.567343e+001 9.445550e+000 1.300000e+001
      vertex   1.567343e+001 1.044555e+001 5.100000e+001
      vertex   1.567343e+001 -8.234137e-001 5.100000e+001
    endloop
  endfacet
  facet normal 1.000000e+000 0.000000e+000 4.674623e-016
    outer loop
      vertex   1.567343e+001 1.765863e-001 1.300000e+001
      vertex   1.567343e+001 -8.234137e-001 5.100000e+001
      vertex   1.567343e+001 -8.234137e-001 1.300000e+001
    endloop
  endfacet
  facet normal 1.000000e+000 -0.000000e+000 4.674623e-016
    outer loop
      vertex   1.567343e+001 1.765863e-001 1.300000e+001
      vertex   1.567343e+001 9.445550e+000 1.300000e+001
      vertex   1.567343e+001 -8.234137e-001 5.100000e+001
    endloop
  endfacet
  facet normal 1.000000e+000 -0.000000e+000 0.000000e+000
    outer loop
      vertex   1.567343e+001 1.765863e-001 1.300000e+001
      vertex   1.567343e+001 9.445550e+000 1.100000e+001
      vertex   1.567343e+001 9.445550e+000 1.300000e+001
    endloop
  endfacet
  facet normal 1.000000e+000 -0.000000e+000 0.000000e+000
    outer loop
      vertex   1.567343e+001 1.765863e-001 1.300000e+001
      vertex   1.567343e+001 1.765863e-001 1.100000e+001
      vertex   1.567343e+001 9.445550e+000 1.100000e+001
    endloop
  endfacet
  facet normal -7.746467e-015 -2.075660e-015 1.000000e+000
    outer loop
      vertex   -1.341551e+000 -8.234137e-001 5.100000e+001
      vertex   -4.361061e+000 1.044555e+001 5.100000e+001
      vertex   -5.010541e+000 -8.234137e-001 5.100000e+001
    endloop
  endfacet
  facet normal -4.376071e-014 0.000000e+000 1.000000e+000
    outer loop
      vertex   -5.010541e+000 -8.234137e-001 5.100000e+001
      vertex   -4.361061e+000 1.044555e+001 5.100000e+001
      vertex   -5.010541e+000 1.044555e+001 5.100000e+001
    endloop
  endfacet
  facet normal -2.681321e-013 0.000000e+000 1.000000e+000
    outer loop
      vertex   -5.010541e+000 9.445550e+000 1.300000e+001
      vertex   -5.010541e+000 1.044555e+001 1.300000e+001
      vertex   -5.076790e+000 9.445550e+000 1.300000e+001
    endloop
  endfacet
  facet normal -2.681321e-013 0.000000e+000 1.000000e+000
    outer loop
      vertex   -5.076790e+000 9.445550e+000 1.300000e+001
      vertex   -5.010541e+000 1.044555e+001 1.300000e+001
      vertex   -5.076790e+000 1.944555e+001 1.300000e+001
    endloop
  endfacet
  facet normal -0.000000e+000 1.973730e-015 1.000000e+000
    outer loop
      vertex   -5.076790e+000 1.944555e+001 1.300000e+001
      vertex   -5.010541e+000 1.044555e+001 1.300000e+001
      vertex   1.567343e+001 1.044555e+001 1.300000e+001
    endloop
  endfacet
  facet normal 0.000000e+000 0.000000e+000 1.000000e+000
    outer loop
      vertex   1.573968e+001 1.944555e+001 1.300000e+001
      vertex   1.567343e+001 1.044555e+001 1.300000e+001
      vertex   1.573968e+001 9.445550e+000 1.300000e+001
    endloop
  endfacet
  facet normal -8.533421e-016 6.281482e-018 1.000000e+000
    outer loop
      vertex   1.573968e+001 1.944555e+001 1.300000e+001
      vertex   -5.076790e+000 1.944555e+001 1.300000e+001
      vertex   1.567343e+001 1.044555e+001 1.300000e+001
    endloop
  endfacet
  facet normal -0.000000e+000 0.000000e+000 1.000000e+000
    outer loop
      vertex   1.567343e+001 1.044555e+001 1.300000e+001
      vertex   1.567343e+001 9.445550e+000 1.300000e+001
      vertex   1.573968e+001 9.445550e+000 1.300000e+001
    endloop
  endfacet
  facet normal -1.000000e+000 -0.000000e+000 -1.480297e-015
    outer loop
      vertex   -5.076790e+000 1.944555e+001 1.000000e+000
      vertex   -5.076790e+000 9.445550e+000 1.000000e+000
      vertex   -5.076790e+000 1.944555e+001 1.300000e+001
    endloop
  endfacet
  facet normal -1.000000e+000 0.000000e+000 -1.480297e-015
    outer loop
      vertex   -5.076790e+000 1.944555e+001 1.300000e+001
      vertex   -5.076790e+000 9.445550e+000 1.000000e+000
      vertex   -5.076790e+000 9.445550e+000 1.300000e+001
    endloop
  endfacet
  facet normal 0.000000e+000 1.000000e+000 -0.000000e+000
    outer loop
      vertex   1.573968e+001 1.944555e+001 1.000000e+000
      vertex   -5.076790e+000 1.944555e+001 1.000000e+000
      vertex   1.573968e+001 1.944555e+001 1.300000e+001
    endloop
  endfacet
  facet normal 0.000000e+000 1.000000e+000 0.000000e+000
    outer loop
      vertex   1.573968e+001 1.944555e+001 1.300000e+001
      vertex   -5.076790e+000 1.944555e+001 1.000000e+000
      vertex   -5.076790e+000 1.944555e+001 1.300000e+001
    endloop
  endfacet
  facet normal 1.000000e+000 0.000000e+000 -0.000000e+000
    outer loop
      vertex   1.573968e+001 9.445550e+000 1.000000e+000
      vertex   1.573968e+001 1.944555e+001 1.000000e+000
      vertex   1.573968e+001 9.445550e+000 1.300000e+001
    endloop
  endfacet
  facet normal 1.000000e+000 -0.000000e+000 0.000000e+000
    outer loop
      vertex   1.573968e+001 9.445550e+000 1.300000e+001
      vertex   1.573968e+001 1.944555e+001 1.000000e+000
      vertex   1.573968e+001 1.944555e+001 1.300000e+001
    endloop
  endfacet
  facet normal 0.000000e+000 -1.000000e+000 -0.000000e+000
    outer loop
      vertex   -5.010541e+000 9.445550e+000 1.300000e+001
      vertex   -5.076790e+000 9.445550e+000 1.300000e+001
      vertex   -5.010541e+000 9.445550e+000 1.100000e+001
    endloop
  endfacet
  facet normal -0.000000e+000 -1.000000e+000 -0.000000e+000
    outer loop
      vertex   -5.010541e+000 9.445550e+000 1.100000e+001
      vertex   -5.076790e+000 9.445550e+000 1.300000e+001
      vertex   -5.076790e+000 9.445550e+000 1.000000e+000
    endloop
  endfacet
  facet normal -0.000000e+000 -1.000000e+000 0.000000e+000
    outer loop
      vertex   1.573968e+001 9.445550e+000 1.000000e+000
      vertex   -5.010541e+000 9.445550e+000 1.100000e+001
      vertex   -5.076790e+000 9.445550e+000 1.000000e+000
    endloop
  endfacet
  facet normal 0.000000e+000 -1.000000e+000 0.000000e+000
    outer loop
      vertex   1.573968e+001 9.445550e+000 1.000000e+000
      vertex   1.567343e+001 9.445550e+000 1.100000e+001
      vertex   -5.010541e+000 9.445550e+000 1.100000e+001
    endloop
  endfacet
  facet normal -0.000000e+000 -1.000000e+000 0.000000e+000
    outer loop
      vertex   1.573968e+001 9.445550e+000 1.000000e+000
      vertex   1.573968e+001 9.445550e+000 1.300000e+001
      vertex   1.567343e+001 9.445550e+000 1.100000e+001
    endloop
  endfacet
  facet normal 0.000000e+000 -1.000000e+000 0.000000e+000
    outer loop
      vertex   1.567343e+001 9.445550e+000 1.100000e+001
      vertex   1.573968e+001 9.445550e+000 1.300000e+001
      vertex   1.567343e+001 9.445550e+000 1.300000e+001
    endloop
  endfacet
  facet normal 0.000000e+000 0.000000e+000 -1.000000e+000
    outer loop
      vertex   1.573968e+001 9.445550e+000 1.000000e+000
      vertex   -5.076790e+000 9.445550e+000 1.000000e+000
      vertex   1.573968e+001 1.944555e+001 1.000000e+000
    endloop
  endfacet
  facet normal -0.000000e+000 0.000000e+000 -1.000000e+000
    outer loop
      vertex   1.573968e+001 1.944555e+001 1.000000e+000
      vertex   -5.076790e+000 9.445550e+000 1.000000e+000
      vertex   -5.076790e+000 1.944555e+001 1.000000e+000
    endloop
  endfacet
endsolid
